<?xml version="1.0" encoding="utf-8"?>
<!-- Generator: Adobe Illustrator 22.0.1, SVG Export Plug-In . SVG Version: 6.00 Build 0)  -->
<svg version="1.1" id="Layer_1" xmlns="http://www.w3.org/2000/svg" xmlns:xlink="http://www.w3.org/1999/xlink" x="0px" y="0px"
	 viewBox="0 0 227.4 176.2" style="enable-background:new 0 0 227.4 176.2;" xml:space="preserve">
<style type="text/css">
	.st0{fill:#FFFFFF;stroke:#FFBD39;stroke-width:8;stroke-miterlimit:10;}
	.st1{fill:#5C636E;}
</style>
<g>
	<path class="st0" d="M201.4,101.1c5.9-9.4,9.4-20.4,9.4-32.3c0-33.5-27.2-60.7-60.7-60.7c-33.5,0-60.7,27.2-60.7,60.7
		s27.2,60.7,60.7,60.7c9.8,0,18.9-2.4,27.1-6.4c11.9,9.3,29.2,8.5,40.1-2.4c0.6-0.6,1.2-1.2,1.7-1.9L201.4,101.1z"/>
	<g>
		<path class="st1" d="M132.6,68.8c0,3.1-2.5,5.6-5.6,5.6s-5.6-2.5-5.6-5.6c0-3.1,2.5-5.6,5.6-5.6S132.6,65.7,132.6,68.8z"/>
		<path class="st1" d="M153.9,68.8c0,3.1-2.5,5.6-5.6,5.6c-3.1,0-5.6-2.5-5.6-5.6c0-3.1,2.5-5.6,5.6-5.6
			C151.4,63.2,153.9,65.7,153.9,68.8z"/>
		<path class="st1" d="M175.2,68.8c0,3.1-2.5,5.6-5.6,5.6c-3.1,0-5.6-2.5-5.6-5.6c0-3.1,2.5-5.6,5.6-5.6
			C172.7,63.2,175.2,65.7,175.2,68.8z"/>
	</g>
	<path class="st0" d="M77.8,47.6c-33.5,0-60.7,27.2-60.7,60.7c0,11.9,3.5,22.9,9.4,32.3L8.9,158.2c0.5,0.6,1.1,1.3,1.7,1.9
		c11,11,28.2,11.8,40.1,2.4c8.2,4.1,17.3,6.4,27.1,6.4c33.5,0,60.7-27.2,60.7-60.7S111.3,47.6,77.8,47.6z"/>
	<g>
		<path class="st1" d="M57.9,110.7c0,3.9-3.2,7.1-7.1,7.1c-3.9,0-7.1-3.2-7.1-7.1c0-3.9,3.2-7.1,7.1-7.1
			C54.8,103.6,57.9,106.8,57.9,110.7z"/>
		<circle class="st1" cx="77.8" cy="110.7" r="7.1"/>
		<path class="st1" d="M111.8,110.7c0,3.9-3.2,7.1-7.1,7.1c-3.9,0-7.1-3.2-7.1-7.1c0-3.9,3.2-7.1,7.1-7.1
			C108.6,103.6,111.8,106.8,111.8,110.7z"/>
	</g>
</g>
</svg>
