<?xml version="1.0" encoding="utf-8"?>
<!-- Generator: Adobe Illustrator 22.0.1, SVG Export Plug-In . SVG Version: 6.00 Build 0)  -->
<svg version="1.1" id="Layer_1" xmlns="http://www.w3.org/2000/svg" xmlns:xlink="http://www.w3.org/1999/xlink" x="0px" y="0px"
	 viewBox="0 0 98.2 96.9" style="enable-background:new 0 0 98.2 96.9;" xml:space="preserve">
<style type="text/css">
	.st0{fill:none;stroke:#1372D1;stroke-width:4;stroke-miterlimit:10;}
	.st1{fill:#1372D1;}
	.st2{fill:#FFFFFF;}
</style>
<g>
	<g>
		
			<ellipse transform="matrix(1 -2.231447e-03 2.231447e-03 1 -0.1079 0.1097)" class="st0" cx="49.1" cy="48.4" rx="39.3" ry="39.3"/>
		<circle class="st1" cx="49.1" cy="48.4" r="33.8"/>
	</g>
	<path class="st2" d="M43.7,70.6h8.7V48.9h6l0.6-7.3h-6.7c0,0,0-2.7,0-4.1c0-1.7,0.3-2.4,2-2.4c1.3,0,4.7,0,4.7,0v-7.5
		c0,0-4.9,0-6,0c-6.4,0-9.4,2.8-9.4,8.3c0,4.7,0,5.8,0,5.8h-4.5V49h4.5V70.6z"/>
</g>
</svg>
