<?xml version="1.0" encoding="utf-8"?>
<!-- Generator: Adobe Illustrator 22.0.1, SVG Export Plug-In . SVG Version: 6.00 Build 0)  -->
<svg version="1.1" id="Layer_1" xmlns="http://www.w3.org/2000/svg" xmlns:xlink="http://www.w3.org/1999/xlink" x="0px" y="0px"
	 viewBox="0 0 166.1 162.2" style="enable-background:new 0 0 166.1 162.2;" xml:space="preserve">
<style type="text/css">
	.st0{fill:#5C636E;}
	.st1{fill:#FFBD39;}
</style>
<g>
	<path d="M157.1,138.5c2.5,2.5,3.7,5.7,3.7,8.9c0,3.2-1.2,6.4-3.7,8.9c-2.5,2.5-5.7,3.7-8.9,3.7c-3.2,0-6.4-1.2-8.9-3.7l-36.7-36.7
		c-0.6-0.6-0.9-1.3-0.9-2.1c0-0.8,0.3-1.6,0.9-2.1l1.5-1.5l-3.6-3.6c-10.4,8-22.9,12-35.4,12c-14.8,0-29.7-5.6-41-16.9
		c-22.6-22.6-22.6-59.4,0-82c22.6-22.6,59.4-22.6,82,0c20.8,20.8,22.5,53.6,4.9,76.3l3.6,3.6l1.5-1.5c1.2-1.2,3.1-1.2,4.3,0
		L157.1,138.5z M152.9,152c2.5-2.5,2.5-6.7,0-9.2l-34.5-34.5l-9.2,9.2l34.5,34.5C146.2,154.5,150.3,154.5,152.9,152z M117.1,64.3
		c0-13.9-5.4-26.9-15.2-36.7c-9.8-9.8-22.8-15.2-36.7-15.2c-13.9,0-26.9,5.4-36.7,15.2S13.3,50.5,13.3,64.3s5.4,26.9,15.2,36.7
		c9.8,9.8,22.8,15.2,36.7,15.2c13.9,0,26.9-5.4,36.7-15.2C111.7,91.2,117.1,78.2,117.1,64.3z M108.4,109.6l2-2l-3.3-3.3
		c-0.3,0.3-0.7,0.7-1,1c-0.3,0.3-0.7,0.7-1,1L108.4,109.6z"/>
	<path class="st0" d="M152.9,142.7c2.5,2.5,2.5,6.7,0,9.2c-2.5,2.5-6.7,2.5-9.2,0l-34.5-34.5l9.2-9.2L152.9,142.7z"/>
	<path class="st1" d="M101.9,27.6c9.8,9.8,15.2,22.8,15.2,36.7s-5.4,26.9-15.2,36.7c-9.8,9.8-22.8,15.2-36.7,15.2
		c-13.9,0-26.9-5.4-36.7-15.2c-9.8-9.8-15.2-22.8-15.2-36.7s5.4-26.9,15.2-36.7s22.8-15.2,36.7-15.2C79.1,12.4,92.1,17.8,101.9,27.6
		z M110.7,64.3c0-12.2-4.7-23.6-13.3-32.2c-8.6-8.6-20-13.3-32.2-13.3C53,18.8,41.6,23.5,33,32.1c-8.6,8.6-13.3,20-13.3,32.2
		c0,12.2,4.7,23.6,13.3,32.2c8.6,8.6,20,13.3,32.2,13.3c12.2,0,23.6-4.7,32.2-13.3C106,87.9,110.7,76.5,110.7,64.3z"/>
	<path class="st1" d="M110.4,107.6l-2,2l-3.3-3.3c0.3-0.3,0.7-0.7,1-1c0.3-0.3,0.7-0.7,1-1L110.4,107.6z"/>
	<path d="M97.4,32.1c8.6,8.6,13.3,20,13.3,32.2c0,12.2-4.7,23.6-13.3,32.2c-8.6,8.6-20,13.3-32.2,13.3c-12.2,0-23.6-4.7-32.2-13.3
		c-8.6-8.6-13.3-20-13.3-32.2c0-12.2,4.7-23.6,13.3-32.2c8.6-8.6,20-13.3,32.2-13.3C77.4,18.8,88.8,23.5,97.4,32.1z M93.1,92.2
		c15.4-15.4,15.4-40.4,0-55.8C85.6,29,75.7,24.9,65.2,24.9c-10.5,0-20.4,4.1-27.9,11.6c-15.4,15.4-15.4,40.4,0,55.8
		c7.5,7.5,17.4,11.6,27.9,11.6C75.7,103.8,85.6,99.7,93.1,92.2z"/>
	<path d="M90.3,39.2c1.2,1.2,1.2,3.1,0,4.3c-0.6,0.6-1.4,0.9-2.1,0.9c-0.8,0-1.6-0.3-2.1-0.9c-1.7-1.7-3.5-3.1-5.5-4.4
		c-1.4-0.9-1.9-2.7-1-4.2c0.9-1.4,2.7-1.9,4.2-1C86,35.4,88.3,37.2,90.3,39.2z"/>
	<path d="M90.3,85.1c1.2,1.2,1.2,3.1,0,4.3c-6.7,6.7-15.7,10.4-25,10.4c-1.4,0-2.8-0.1-4.3-0.3c-1.7-0.2-2.8-1.7-2.6-3.4
		c0.2-1.7,1.7-2.8,3.4-2.6c9,1.1,17.9-2,24.3-8.4C87.2,83.9,89.1,83.9,90.3,85.1z"/>
	<path d="M70.7,29.3c1.7,0.3,2.8,1.8,2.5,3.5c-0.3,1.7-1.8,2.8-3.5,2.5c-9.3-1.4-18.7,1.6-25.4,8.3c-0.6,0.6-1.4,0.9-2.1,0.9
		c-0.8,0-1.6-0.3-2.1-0.9c-1.2-1.2-1.2-3.1,0-4.3C48.1,31.2,59.5,27.5,70.7,29.3z"/>
	<path d="M49.7,89.3c1.4,0.9,1.8,2.8,1,4.2c-0.6,0.9-1.6,1.4-2.6,1.4c-0.5,0-1.1-0.1-1.6-0.5c-2.3-1.4-4.4-3.1-6.3-5
		c-1.2-1.2-1.2-3.1,0-4.3c1.2-1.2,3.1-1.2,4.3,0C46,86.7,47.8,88.1,49.7,89.3z"/>
</g>
</svg>
