<?xml version="1.0" encoding="utf-8"?>
<!-- Generator: Adobe Illustrator 22.0.1, SVG Export Plug-In . SVG Version: 6.00 Build 0)  -->
<svg version="1.1" id="Layer_1" xmlns="http://www.w3.org/2000/svg" xmlns:xlink="http://www.w3.org/1999/xlink" x="0px" y="0px"
	 viewBox="0 0 98.2 96.9" style="enable-background:new 0 0 98.2 96.9;" xml:space="preserve">
<style type="text/css">
	.st0{fill:none;stroke:#FF3E5D;stroke-width:5;stroke-miterlimit:10;}
	.st1{fill:#FF3E5D;}
	.st2{fill:#EFEBE3;}
</style>
<g>
	<g>
		<ellipse transform="matrix(0.9696 -0.2447 0.2447 0.9696 -10.3572 13.4851)" class="st0" cx="49.1" cy="48.4" rx="41" ry="41"/>
		<circle class="st1" cx="49.1" cy="48.4" r="35.2"/>
	</g>
	<g>
		<path class="st2" d="M49.1,32.5c5.4,0,6.1,0,8.2,0.1c2,0.1,3.1,0.4,3.8,0.7c1,0.4,1.6,0.8,2.3,1.5c0.7,0.7,1.2,1.4,1.5,2.3
			c0.3,0.7,0.6,1.8,0.7,3.8c0.1,2.1,0.1,2.8,0.1,8.2c0,5.4,0,6.1-0.1,8.2c-0.1,2-0.4,3.1-0.7,3.8c-0.4,1-0.8,1.6-1.5,2.3
			c-0.7,0.7-1.4,1.2-2.3,1.5c-0.7,0.3-1.8,0.6-3.8,0.7c-2.1,0.1-2.8,0.1-8.2,0.1c-5.4,0-6.1,0-8.2-0.1c-2-0.1-3.1-0.4-3.8-0.7
			c-1-0.4-1.6-0.8-2.3-1.5c-0.7-0.7-1.2-1.4-1.5-2.3c-0.3-0.7-0.6-1.8-0.7-3.8c-0.1-2.1-0.1-2.8-0.1-8.2c0-5.4,0-6.1,0.1-8.2
			c0.1-2,0.4-3.1,0.7-3.8c0.4-1,0.8-1.6,1.5-2.3c0.7-0.7,1.4-1.2,2.3-1.5c0.7-0.3,1.8-0.6,3.8-0.7C43.1,32.5,43.7,32.5,49.1,32.5
			 M49.1,28.8c-5.5,0-6.2,0-8.4,0.1c-2.2,0.1-3.6,0.4-4.9,0.9c-1.3,0.5-2.5,1.2-3.6,2.3c-1.1,1.1-1.8,2.3-2.3,3.6
			c-0.5,1.3-0.8,2.8-0.9,4.9c-0.1,2.2-0.1,2.9-0.1,8.4c0,5.5,0,6.2,0.1,8.4c0.1,2.2,0.4,3.6,0.9,4.9c0.5,1.3,1.2,2.5,2.3,3.6
			c1.1,1.1,2.3,1.8,3.6,2.3c1.3,0.5,2.8,0.8,4.9,0.9c2.2,0.1,2.9,0.1,8.4,0.1c5.5,0,6.2,0,8.4-0.1c2.2-0.1,3.6-0.4,4.9-0.9
			c1.3-0.5,2.5-1.2,3.6-2.3c1.1-1.1,1.8-2.3,2.3-3.6c0.5-1.3,0.8-2.8,0.9-4.9c0.1-2.2,0.1-2.9,0.1-8.4c0-5.5,0-6.2-0.1-8.4
			c-0.1-2.2-0.4-3.6-0.9-4.9c-0.5-1.3-1.2-2.5-2.3-3.6c-1.1-1.1-2.3-1.8-3.6-2.3c-1.3-0.5-2.8-0.8-4.9-0.9
			C55.4,28.8,54.7,28.8,49.1,28.8"/>
		<path class="st2" d="M49.1,38.7c-5.8,0-10.5,4.7-10.5,10.5c0,5.8,4.7,10.5,10.5,10.5s10.5-4.7,10.5-10.5
			C59.6,43.4,54.9,38.7,49.1,38.7 M49.1,55.9c-3.7,0-6.8-3-6.8-6.8s3-6.8,6.8-6.8s6.8,3,6.8,6.8S52.9,55.9,49.1,55.9"/>
		<path class="st2" d="M62.4,38.3c0,1.3-1.1,2.4-2.4,2.4c-1.3,0-2.4-1.1-2.4-2.4c0-1.3,1.1-2.4,2.4-2.4
			C61.3,35.9,62.4,36.9,62.4,38.3"/>
	</g>
</g>
</svg>
