<?xml version="1.0" encoding="utf-8"?>
<!-- Generator: Adobe Illustrator 22.0.1, SVG Export Plug-In . SVG Version: 6.00 Build 0)  -->
<svg version="1.1" id="Layer_1" xmlns="http://www.w3.org/2000/svg" xmlns:xlink="http://www.w3.org/1999/xlink" x="0px" y="0px"
	 viewBox="0 0 227.4 228.8" style="enable-background:new 0 0 227.4 228.8;" xml:space="preserve">
<style type="text/css">
	.st0{fill:#5C636E;}
	.st1{fill:#FFBD39;}
	.st2{fill:#FFFFFF;}
</style>
<g>
	<path d="M220.3,86.8v109c0,8.7-7,15.7-15.7,15.7h-51l5.8,6.2h8.8c2,0,3.6,1.6,3.6,3.6c0,2-1.6,3.6-3.6,3.6H60.6
		c-2,0-3.6-1.6-3.6-3.6c0-2,1.6-3.6,3.6-3.6h8.8l5.8-6.2h-51c-8.7,0-15.7-7-15.7-15.7v-109c0-8.7,7-15.7,15.7-15.7H69
		c-1.8-5.1-2.7-10.5-2.7-16C66.3,28.6,87.9,7,114.4,7c26.5,0,48.1,21.6,48.1,48.1c0,5.5-0.9,10.9-2.7,16h44.9
		C213.2,71.1,220.3,78.2,220.3,86.8z M213,191.7V90.8h-29.1c0.6,3.8,0.9,7.7,0.9,11.5c0,38.8-31.6,70.5-70.5,70.5
		c-38.9,0-70.5-31.6-70.5-70.5c0-3.9,0.3-7.7,0.9-11.5H15.8v100.9H213z M16.4,83.5h195.9c-1.3-3-4.3-5.1-7.7-5.1H24.2
		C20.7,78.4,17.7,80.5,16.4,83.5z M212.3,199H16.4c1.3,3,4.3,5.1,7.7,5.1h180.4C208.1,204.2,211,202.1,212.3,199z M177.5,102.4
		c0-3.9-0.4-7.7-1.1-11.5H166c0.8,3.8,1.3,7.6,1.3,11.5c0,29.2-23.7,52.9-52.9,52.9s-52.9-23.7-52.9-52.9c0-3.9,0.4-7.8,1.3-11.5
		H52.3c-0.7,3.8-1.1,7.7-1.1,11.5c0,34.8,28.3,63.2,63.2,63.2C149.2,165.5,177.5,137.2,177.5,102.4z M160,102.4
		c0-3.9-0.5-7.8-1.5-11.5H118v8.3c3.2,0.7,6.1,2.3,8.4,4.6c3.2,3.2,5,7.5,5,12.1c0,4.6-1.8,8.9-5,12.1c-2.3,2.4-5.3,3.9-8.4,4.6v3
		c0,2-1.6,3.6-3.6,3.6c-2,0-3.6-1.6-3.6-3.6v-3c-3.2-0.7-6.1-2.3-8.5-4.6c-3.2-3.2-5-7.5-5-12.1c0-2,1.6-3.6,3.6-3.6
		c2,0,3.6,1.6,3.6,3.6c0,2.6,1,5.1,2.9,6.9c1,1,2.1,1.7,3.3,2.2v-19.3c-3.2-0.7-6.1-2.3-8.5-4.6c-2.8-2.8-4.5-6.3-4.9-10.2H70.3
		c-1,3.8-1.5,7.6-1.5,11.5c0,25.1,20.5,45.6,45.6,45.6S160,127.5,160,102.4z M151.9,71.1c2.2-5.1,3.3-10.4,3.3-16
		c0-22.5-18.3-40.8-40.8-40.8c-22.5,0-40.8,18.3-40.8,40.8c0,5.6,1.1,11,3.3,16h4.8c-2.4-5-3.7-10.4-3.7-16
		c0-20.1,16.3-36.4,36.4-36.4c20.1,0,36.4,16.3,36.4,36.4c0,5.6-1.3,11.1-3.7,16H151.9z M149.4,217.7l-5.8-6.2H85.1l-5.8,6.2H149.4z
		 M138.7,71.1c3.2-4.8,4.8-10.3,4.8-16c0-16-13.1-29.1-29.1-29.1c-16,0-29.1,13.1-29.1,29.1c0,5.8,1.7,11.3,4.8,16h14.5
		c-1.4-2-2.3-4.4-2.3-7.1c0-1.7,1.4-3.2,3.2-3.2c1.7,0,3.2,1.4,3.2,3.2c0,2,1.1,3.8,2.6,4.8V57.8c-5.1-1.4-9-6.1-9-11.7
		c0-5.6,3.8-10.3,9-11.7V33c0-1.7,1.4-3.2,3.2-3.2s3.2,1.4,3.2,3.2v1.4c5.1,1.4,8.9,6.1,8.9,11.7c0,1.7-1.4,3.2-3.2,3.2
		s-3.2-1.4-3.2-3.2c0-2-1-3.8-2.6-4.8v11.1c5.1,1.4,8.9,6.1,8.9,11.7c0,2.6-0.9,5.1-2.3,7.1H138.7z M124.2,115.8
		c0-2.6-1-5.1-2.9-6.9c-1-1-2.1-1.7-3.3-2.2v18.2c1.2-0.5,2.3-1.2,3.3-2.2C123.2,120.9,124.2,118.4,124.2,115.8z M120.2,64
		c0-2-1-3.8-2.6-4.8v9.7C119.1,67.8,120.2,66.1,120.2,64z M111.2,51v-9.7c-1.6,1-2.6,2.8-2.6,4.8C108.6,48.2,109.6,49.9,111.2,51z
		 M110.7,98v-7.2h-6c0.4,1.9,1.3,3.6,2.7,5C108.4,96.8,109.5,97.5,110.7,98z"/>
	<path class="st0" d="M212.3,83.5H16.4c1.3-3,4.3-5.1,7.7-5.1h180.4C208.1,78.4,211,80.5,212.3,83.5z"/>
	<path class="st0" d="M16.4,199h195.9c-1.3,3-4.3,5.1-7.7,5.1H24.2C20.7,204.2,17.7,202.1,16.4,199z"/>
	<path class="st1" d="M176.5,90.8c0.7,3.8,1.1,7.7,1.1,11.5c0,34.8-28.3,63.2-63.2,63.2c-34.8,0-63.2-28.3-63.2-63.2
		c0-3.9,0.4-7.7,1.1-11.5h10.5c-0.8,3.8-1.3,7.6-1.3,11.5c0,29.2,23.7,52.9,52.9,52.9s52.9-23.7,52.9-52.9c0-3.9-0.4-7.8-1.3-11.5
		H176.5z"/>
	<path class="st2" d="M158.5,90.8c1,3.8,1.5,7.6,1.5,11.5c0,25.1-20.5,45.6-45.6,45.6s-45.6-20.5-45.6-45.6c0-3.9,0.5-7.8,1.5-11.5
		h27.1c0.4,3.8,2.1,7.4,4.9,10.2c2.4,2.4,5.3,3.9,8.5,4.6v19.3c-1.2-0.5-2.3-1.2-3.3-2.2c-1.9-1.9-2.9-4.3-2.9-6.9
		c0-2-1.6-3.6-3.6-3.6c-2,0-3.6,1.6-3.6,3.6c0,4.6,1.8,8.9,5,12.1c2.4,2.4,5.3,3.9,8.5,4.6v3c0,2,1.6,3.6,3.6,3.6
		c2,0,3.6-1.6,3.6-3.6v-3c3.2-0.7,6.1-2.3,8.4-4.6c3.2-3.2,5-7.5,5-12.1c0-4.6-1.8-8.9-5-12.1c-2.3-2.4-5.3-3.9-8.4-4.6v-8.3H158.5z
		"/>
	<path class="st1" d="M155.2,55.1c0,5.6-1.1,11-3.3,16h-4.8c2.4-5,3.7-10.4,3.7-16c0-20.1-16.3-36.4-36.4-36.4
		C94.3,18.7,78,35,78,55.1c0,5.6,1.3,11.1,3.7,16h-4.8c-2.2-5.1-3.3-10.4-3.3-16c0-22.5,18.3-40.8,40.8-40.8
		C136.9,14.3,155.2,32.6,155.2,55.1z"/>
	<polygon class="st0" points="143.6,211.5 149.4,217.7 79.3,217.7 85.1,211.5 	"/>
	<path class="st2" d="M143.5,55.1c0,5.8-1.7,11.3-4.8,16h-14.5c1.4-2,2.3-4.4,2.3-7.1c0-5.6-3.8-10.3-8.9-11.7V41.3
		c1.6,1,2.6,2.8,2.6,4.8c0,1.7,1.4,3.2,3.2,3.2s3.2-1.4,3.2-3.2c0-5.6-3.8-10.3-8.9-11.7V33c0-1.7-1.4-3.2-3.2-3.2s-3.2,1.4-3.2,3.2
		v1.4c-5.1,1.4-9,6.1-9,11.7c0,5.6,3.8,10.3,9,11.7v11.1c-1.6-1-2.6-2.8-2.6-4.8c0-1.7-1.4-3.2-3.2-3.2c-1.7,0-3.2,1.4-3.2,3.2
		c0,2.6,0.9,5.1,2.3,7.1H90.1c-3.2-4.8-4.8-10.3-4.8-16c0-16,13.1-29.1,29.1-29.1C130.4,26,143.5,39,143.5,55.1z"/>
	<path class="st2" d="M121.3,108.9c1.9,1.9,2.9,4.3,2.9,6.9c0,2.6-1,5.1-2.9,6.9c-1,1-2.1,1.7-3.3,2.2v-18.2
		C119.2,107.2,120.4,107.9,121.3,108.9z"/>
	<path class="st2" d="M117.5,59.2c1.6,1,2.6,2.8,2.6,4.8c0,2-1,3.8-2.6,4.8V59.2z"/>
	<path class="st2" d="M111.2,41.3V51c-1.6-1-2.6-2.8-2.6-4.9C108.6,44.1,109.6,42.3,111.2,41.3z"/>
	<path class="st2" d="M110.7,90.8V98c-1.2-0.5-2.3-1.2-3.3-2.2c-1.4-1.4-2.3-3.1-2.7-5H110.7z"/>
</g>
</svg>
