<?xml version="1.0" encoding="utf-8"?>
<!-- Generator: Adobe Illustrator 22.0.1, SVG Export Plug-In . SVG Version: 6.00 Build 0)  -->
<svg version="1.1" id="Layer_1" xmlns="http://www.w3.org/2000/svg" xmlns:xlink="http://www.w3.org/1999/xlink" x="0px" y="0px"
	 viewBox="0 0 98.2 96.9" style="enable-background:new 0 0 98.2 96.9;" xml:space="preserve">
<style type="text/css">
	.st0{fill:none;stroke:#6CD9FF;stroke-width:5;stroke-miterlimit:10;}
	.st1{fill:#6CD9FF;}
	.st2{fill:#EFEBE3;}
</style>
<g>
	<g>
		<circle class="st0" cx="49.8" cy="50.1" r="41"/>
		<circle class="st1" cx="49.8" cy="50.1" r="35.2"/>
	</g>
	<path class="st2" d="M32.6,64.3c3.6,2.3,7.9,3.6,12.4,3.6c15.1,0,23.6-12.7,23.1-24.1c1.6-1.1,3-2.6,4-4.2c-1.5,0.6-3,1.1-4.7,1.3
		c1.7-1,3-2.6,3.6-4.5c-1.6,0.9-3.3,1.6-5.2,2c-1.5-1.6-3.6-2.6-5.9-2.6c-5.2,0-9.1,4.9-7.9,10c-6.7-0.3-12.7-3.6-16.7-8.5
		c-2.1,3.6-1.1,8.4,2.5,10.8c-1.3,0-2.6-0.4-3.7-1c-0.1,3.8,2.6,7.3,6.5,8.1c-1.1,0.3-2.4,0.4-3.7,0.1c1,3.2,4,5.6,7.6,5.6
		C41.2,63.6,36.9,64.8,32.6,64.3z"/>
</g>
</svg>
